<svg xmlns="http://www.w3.org/2000/svg"
     width="35"
     height="35"
     viewBox="0 0 40 40"
     fill="none"
     class="lucide lucide-house-icon-variant">

  <!-- Soft background circle -->
  <circle cx="21.5" cy="21.5" r="18" fill="none"/>

  <!-- Unified transform + styling -->
  <g transform="translate(8,8) scale(1.1)"
     stroke="#B12CFE"
     stroke-width="1.2"
     stroke-linecap="round"
     stroke-linejoin="round">

    <path d="M15 21v-8a1 1 0 0 0-1-1h-4a1 1 0 0 0-1 1v8" />
    <path d="M3 10a2 2 0 0 1 .709-1.528l7-6a2 2 0 0 1 2.582 0l7 6A2 2 0 0 1 21 10v9a2 2 0 0 1-2 2H5a2 2 0 0 1-2-2z" />

  </g>
</svg>
